<svg width="195" height="195" viewBox="0 0 195 195" fill="none" xmlns="http://www.w3.org/2000/svg">
<g clip-path="url(#clip0_2_178)">
<path d="M114.655 104.615C111.617 104.615 109.143 102.141 109.143 99.1032C109.143 96.0649 111.617 93.5938 114.655 93.5938C117.693 93.5938 120.164 96.0649 120.164 99.1032C120.164 102.141 117.693 104.615 114.655 104.615ZM126.12 18H121.038C116.817 18 112.891 20.0898 110.533 23.5914L97.9242 42.3107C97.5622 42.8488 97.0409 42.9285 96.7634 42.9285H96.761C96.4835 42.9285 95.9622 42.8488 95.6003 42.3083L83.0516 23.6083C80.6939 20.0971 76.7627 18 72.5348 18H67.3874C59.9427 18 53.8855 24.0572 53.8855 31.5019V90.237C53.8855 97.6794 59.9427 103.737 67.3874 103.737H87.8852C95.33 103.737 101.387 97.6794 101.387 90.237V86.5134C112.111 85.8715 120.64 76.9475 120.64 66.0639V63.752C122.24 62.4224 123.26 60.417 123.26 58.1727C123.26 54.1668 120.012 50.921 116.006 50.921C112 50.921 108.755 54.1668 108.755 58.1727C108.755 60.417 109.773 62.4224 111.373 63.752V66.0639C111.373 72.2538 106.339 77.2877 100.149 77.2877H93.3584C87.1685 77.2877 82.1345 72.2538 82.1345 66.0639V63.752C83.7345 62.4224 84.7529 60.417 84.7529 58.1727C84.7529 54.1668 81.5071 50.921 77.5012 50.921C73.4952 50.921 70.2471 54.1668 70.2471 58.1727C70.2471 60.417 71.2679 62.4224 72.8678 63.752V66.0639C72.8678 76.9451 81.3961 85.8715 92.1204 86.5134V90.237C92.1204 92.5706 90.2212 94.4698 87.8852 94.4698H67.3874C65.0514 94.4698 63.1522 92.5706 63.1522 90.237V31.5019C63.1522 29.1659 65.0514 27.2667 67.3874 27.2667H72.5348C73.669 27.2667 74.7236 27.829 75.3558 28.7726L87.9045 47.4725C89.8882 50.4263 93.1967 52.1928 96.7538 52.1952H96.7634C100.318 52.1952 103.624 50.436 105.61 47.487L118.219 28.7677C118.852 27.829 119.906 27.2667 121.038 27.2667H126.12C128.456 27.2667 130.355 29.1659 130.355 31.5019V90.237C130.355 92.5706 128.456 94.4698 126.12 94.4698H122.609C121.009 91.7332 118.048 89.8871 114.655 89.8871C109.573 89.8871 105.436 94.0209 105.436 99.1032C105.436 104.185 109.573 108.322 114.655 108.322C118.048 108.322 121.009 106.473 122.609 103.737H126.12C133.565 103.737 139.622 97.6794 139.622 90.237V31.5019C139.622 24.0572 133.565 18 126.12 18Z" fill="#00BA6E"/>
<path d="M114.655 95.7729C112.816 95.7729 111.325 97.2643 111.325 99.1032C111.325 100.942 112.816 102.433 114.655 102.433C116.494 102.433 117.985 100.942 117.985 99.1032C117.985 97.2643 116.494 95.7729 114.655 95.7729Z" fill="#00BA6E"/>
<path d="M25.1568 139.786H25.3016L29.9832 126.272H38.1689V151.33H32.9467V132.778H32.8019L27.2322 148.328H22.7243L17.2222 132.778H17.0098V151.33H12V126.272H20.4076L25.1568 139.786Z" fill="#1F3300"/>
<path d="M42.5639 158.338C43.0658 158.589 44.4269 158.946 45.8555 158.946C50.5757 158.946 52.5739 155.867 53.7129 152.334L60.5085 131.137H54.9292L53.0372 138C52.2843 140.712 51.821 143.212 51.541 145.037H51.3962C51.1453 143.328 50.3537 140.288 49.6105 138L47.3517 131.137H41.3187L48.8961 151.263C48.7127 153.3 47.5737 154.4 45.6431 154.4C44.7454 154.4 43.9925 154.188 43.4616 153.908L42.5639 158.338Z" fill="#1F3300"/>
<path d="M73.5204 151.33H81.3875C90.6059 151.33 93.1446 144.651 93.1446 138.251C93.1446 130.239 89.4572 126.272 81.3102 126.272H73.5204V151.33ZM78.9549 130.78H80.9145C84.8818 130.78 87.5363 132.71 87.5363 138.753C87.5363 143.57 86.0691 146.823 80.9531 146.823H78.9549V130.78Z" fill="#1F3300"/>
<path d="M101.69 141.108C101.69 136.996 102.761 134.998 105.223 134.998C108.012 134.998 109.045 137.208 109.045 141.398C109.045 145.5 108.196 147.508 105.435 147.508C102.723 147.508 101.69 145.288 101.69 141.108ZM105.261 151.726C111.941 151.726 114.586 147.402 114.586 141.176C114.586 134.921 112.414 130.78 105.435 130.78C98.7553 130.78 96.149 135.104 96.149 141.32C96.149 147.575 98.3305 151.726 105.261 151.726Z" fill="#1F3300"/>
<path d="M117.31 141.427C117.31 148.724 120.63 151.726 126.103 151.726C130.389 151.726 132.32 150.047 133.459 148.502L130.032 145.326C129.53 146.214 128.391 147.296 126.596 147.296C124.067 147.296 122.812 145.288 122.812 141.002C122.812 136.6 124.318 135.172 126.634 135.172C128.671 135.172 129.714 136.6 129.994 137.102L133.604 133.675C132.252 131.851 129.887 130.741 126.634 130.741C121.171 130.741 117.31 134.313 117.31 141.427Z" fill="#1F3300"/>
<path d="M142.796 151.514C146.155 151.514 147.729 150.761 148.405 150.259L147.015 146.214C146.223 146.823 145.113 147.112 144.254 147.112C142.931 147.112 142.15 146.398 142.15 145.008V135.249H147.188V131.137H142.15V126.059H138.713L136.86 130.808L134.254 131.89V135.249H136.821V144.863C136.821 149.757 139.321 151.514 142.796 151.514Z" fill="#1F3300"/>
<path d="M155.235 141.108C155.235 136.996 156.307 134.998 158.768 134.998C161.558 134.998 162.591 137.208 162.591 141.398C162.591 145.5 161.741 147.508 158.98 147.508C156.268 147.508 155.235 145.288 155.235 141.108ZM158.807 151.726C165.486 151.726 168.131 147.402 168.131 141.176C168.131 134.921 165.959 130.78 158.98 130.78C152.301 130.78 149.694 135.104 149.694 141.32C149.694 147.575 151.876 151.726 158.807 151.726Z" fill="#1F3300"/>
<path d="M184.331 130.886C183.867 130.78 183.182 130.702 182.612 130.702C179.967 130.702 178.22 132.131 177.39 134.1H177.255L176.145 131.137H171.927V151.33H177.284V137.643C178.462 136.677 180.325 136.031 182.004 136.031C182.719 136.031 183.616 136.069 184.331 136.214V130.886Z" fill="#1F3300"/>
<path d="M30.3343 163.949C30.3343 164.77 30.5081 165.513 30.7591 166.16H30.6336C30.4212 165.899 30.0061 165.552 29.205 165.552H12.0036V167.444H25.0639V171.411C25.0639 172.366 25.1315 173.67 25.2763 174.104L25.2183 174.143L23.7415 173.274C23.8862 172.801 23.9538 172.299 23.9538 171.739C23.9538 169.606 22.4383 168.003 20.2664 168.003C18.5096 168.003 17.2354 169.239 17.2354 170.716C17.2354 171.71 17.776 172.646 18.7702 172.965L20.334 171.758C19.8803 171.585 19.6776 171.295 19.6776 170.928C19.6776 170.503 19.9672 170.195 20.4595 170.195C21.1352 170.195 21.6082 170.783 21.6082 171.729C21.6082 173.1 20.807 174.056 19.3108 174.056C17.0134 174.056 15.5558 171.671 14.8512 168.457L12.6793 169.5C13.6928 173.399 15.8165 176.228 19.3301 176.228C20.7008 176.228 21.8302 175.813 22.6121 175.079L26.7531 177.502L28.2976 175.919L27.4481 175.417V167.444H28.5582C29.6586 167.444 30.2282 167.781 30.2282 169.48V177.222H32.6703V167.444H34.4078V165.552H32.6703V163.775H30.3343V163.949Z" fill="#1F3300"/>
<path d="M37.3136 168.023C37.7286 167.723 38.3561 167.415 39.2634 167.415C40.4314 167.415 41.223 167.965 41.7346 168.872L39.553 170.33C39.1186 169.113 38.3754 168.351 37.3136 168.023ZM44.7945 177.222V167.444H46.532V165.552H44.7945V163.775H42.362V164.171C42.362 164.799 42.362 165.725 42.7964 167.009L42.7385 167.048C42.2172 166.372 41.0396 165.397 39.0897 165.397C36.8985 165.397 35.2285 166.613 34.3694 167.791L35.4892 169.432C35.7691 169.451 36.0104 169.5 36.2131 169.567C37.1591 169.886 37.5742 170.754 37.8348 171.517L36.3193 172.521L37.4873 174.249L42.3427 170.89C42.3717 171.218 42.391 171.556 42.391 171.913V177.222H44.7945Z" fill="#1F3300"/>
<path d="M49.9111 173.602C49.5636 173.361 49.303 172.975 49.303 172.473C49.303 171.778 49.8049 171.449 50.5386 171.449C52.6236 171.449 54.1198 174.635 54.1198 177.116V177.222H56.5523V167.443H58.2898V165.552H45.8569V167.443H54.1198V168.805C54.1198 169.722 54.1873 170.61 54.2742 171.256L54.2066 171.276C53.3668 169.934 51.9961 169.239 50.3938 169.239C48.3377 169.239 46.8415 170.388 46.8415 172.453C46.8415 173.38 47.2083 174.056 47.7296 174.509L49.9111 173.602Z" fill="#1F3300"/>
<path d="M59.4406 163.949C59.4406 164.77 59.6144 165.513 59.8557 166.16H59.7399C59.5275 165.899 59.1124 165.552 58.3112 165.552H57.5969V167.444H57.6645C58.7649 167.444 59.3344 167.781 59.3344 169.48V177.222H61.767V167.444H63.5141V165.552H61.767V163.775H59.4406V163.949Z" fill="#1F3300"/>
<path d="M64.2731 177.917C64.2731 178.805 64.9005 179.374 65.7017 179.374C66.5029 179.374 67.111 178.805 67.111 177.917C67.111 177.029 66.5029 176.479 65.7017 176.479C64.9005 176.479 64.2731 177.029 64.2731 177.917ZM69.2829 167.443H62.8155V165.552H73.4047V167.443H71.6671V175.417L72.5166 175.919L70.9721 177.502L63.7711 173.312V171.382C64.5337 170.561 66.6573 168.805 69.2829 168.09V167.443ZM69.2829 170.368C67.8639 170.909 66.6284 171.845 66.2422 172.28L69.4277 174.123H69.4953C69.3601 173.689 69.2829 172.473 69.2829 171.411V170.368Z" fill="#1F3300"/>
<path d="M88.6849 164.123C87.2756 163.08 85.5285 162.54 84.0419 162.54C82.5747 162.54 81.7445 163.293 81.7445 164.577V165.552H83.4821V167.443H81.7445V177.222H79.3217V167.443H77.5842V165.552H79.3217V164.441C79.3217 162.173 80.9627 160.397 83.984 160.397C86.4551 160.397 88.5788 161.304 90.017 162.405L88.6849 164.123Z" fill="#1F3300"/>
<path d="M89.2528 167.443H82.7854V165.552H93.3746V167.443H91.6371V175.417L92.4865 175.919L90.9421 177.502L83.741 173.312V171.382C84.5036 170.561 86.6272 168.805 89.2528 168.09V167.443ZM89.2528 170.368C87.8338 170.909 86.5983 171.845 86.2122 172.28L89.3976 174.123H89.4652C89.33 173.689 89.2528 172.473 89.2528 171.411V170.368Z" fill="#1F3300"/>
<path d="M93.5522 172.164C93.7452 172.212 94.0252 172.26 94.334 172.26C95.2897 172.26 96.1488 171.884 96.7859 171.218C97.394 171.845 98.2628 172.212 99.228 172.212C99.4983 172.212 99.73 172.173 99.8651 172.144V170.195C99.6914 170.233 99.5176 170.243 99.3439 170.243C98.4944 170.243 97.8187 169.78 97.8187 168.872C97.8187 167.936 98.3496 167.463 99.228 167.463C100.213 167.463 100.821 168.071 100.821 169.413V172.28C98.9481 172.994 96.9982 174.181 96.1295 174.924V177.174L102.529 179.992L103.958 178.351L103.07 177.965V167.444H104.807V165.552H103.07V163.775H100.898V164.422C100.898 164.943 100.995 165.754 101.12 166.247H101.052C100.801 165.986 100.251 165.494 99.0446 165.494C98.089 165.494 97.365 165.841 96.7666 166.44C96.1488 165.86 95.309 165.552 94.2472 165.552H92.6834V167.444H94.1313C95.2221 167.444 95.7241 167.936 95.7241 168.853C95.7241 169.866 95.1352 170.281 94.2182 170.281C93.9672 170.281 93.7645 170.262 93.5522 170.233V172.164ZM100.898 177.009L98.3014 175.88C99.0639 175.397 99.8651 174.896 100.821 174.49C100.821 175.311 100.898 176.295 100.985 177.009H100.898Z" fill="#1F3300"/>
<path d="M106.004 168.505L104.846 170.001C105.521 170.851 106.545 171.218 107.404 171.218C108.649 171.218 109.508 170.581 109.952 169.586C110.116 169.895 110.29 170.156 110.473 170.388C110.164 170.783 109.991 171.276 109.991 171.845C109.991 172.907 110.599 173.776 111.448 174.104L112.809 172.82C112.414 172.695 112.182 172.366 112.182 172.019C112.182 171.604 112.51 171.343 112.896 171.343C113.591 171.343 113.939 172.019 113.939 172.907C113.939 174.268 113.109 175.243 111.622 175.243C109.836 175.243 108.533 173.814 107.751 171.691L105.994 172.946C106.979 175.156 108.755 177.222 111.641 177.222C114.306 177.222 116.101 175.533 116.101 172.946C116.101 171.932 115.782 171.025 115.194 170.388C115.647 169.895 115.889 169.22 115.889 168.418C115.889 168.11 115.85 167.791 115.782 167.443H117.607V165.552H104.112V167.443H108.794C108.63 168.486 108.234 169.268 107.404 169.268C106.873 169.268 106.458 168.998 106.004 168.505ZM113.678 168.216C113.678 168.805 113.379 169.306 112.703 169.306C111.796 169.306 111.294 168.476 111.226 167.443H113.543C113.63 167.617 113.678 167.878 113.678 168.216Z" fill="#1F3300"/>
<path d="M125.261 175.311C126.255 175.311 127.269 174.789 128.06 173.901C128.765 173.139 129.199 172.347 129.836 172.347C130.203 172.347 130.435 172.598 130.435 172.975V177.222H132.887V167.443H134.605V165.552H121.786V167.443H124.103V168.129L124.759 168.805C125.608 169.673 126.41 170.61 126.41 171.903C126.41 172.608 126.014 173.187 125.251 173.187C124.411 173.187 124.064 172.579 123.784 171.951L121.96 173.061C122.375 174.181 123.408 175.311 125.261 175.311ZM130.483 170.156C130.271 170.069 130.097 170.04 129.807 170.04C129.199 170.04 128.678 170.494 128.311 170.822C128.292 170.581 128.253 170.32 128.186 170.059C128.031 169.461 127.703 168.833 127.105 168.11L126.622 167.511V167.443H130.435V168.611C130.435 168.872 130.444 169.76 130.483 170.156Z" fill="#1F3300"/>
<path d="M139.044 175.011C139.739 175.166 140.241 175.359 141.389 176.025L142.644 176.749L141.042 178.37C137.316 176.112 136.882 175.745 135.231 175.619V173.708H136.418C138.503 173.708 139.787 172.975 139.787 171.604C139.787 170.754 139.333 170.146 138.522 170.146C138.011 170.146 137.654 170.436 137.654 170.928C137.654 171.295 137.856 171.585 138.329 171.758L136.727 172.965C135.723 172.579 135.25 171.71 135.25 170.716C135.25 169.239 136.447 168.003 138.532 168.003C140.733 168.003 142.142 169.519 142.142 171.604C142.142 173.66 140.733 174.702 139.044 174.944V175.011ZM133.928 167.443V165.552H143.426V167.443H133.928Z" fill="#1F3300"/>
<path d="M148.56 175.812C147.074 175.204 146.263 174.104 146.263 172.212C146.263 170.281 146.89 168.718 147.527 167.443H148.782V165.552H142.73V167.443H145.008C144.361 168.698 143.859 170.349 143.859 172.193C143.859 175.204 145.375 177.067 147.44 177.724L148.56 175.812Z" fill="#1F3300"/>
<path d="M151.736 167.443H154.989V170.803C154.989 171.758 155.076 173.322 155.202 174.191H155.134L151.669 172.28L153.667 170.764V169.133L151.736 167.511V167.443ZM156.679 177.502L158.194 175.919L157.374 175.446V167.443H159.111V165.552H148.088V167.443H149.304V168.129L151.389 169.886L149.304 171.469V173.399L156.679 177.502Z" fill="#1F3300"/>
<path d="M160.264 163.949C160.264 164.77 160.438 165.513 160.679 166.16H160.563C160.351 165.899 159.936 165.552 159.135 165.552H158.42V167.444H158.488C159.588 167.444 160.158 167.781 160.158 169.48V177.222H162.59V167.444H164.338V165.552H162.59V163.775H160.264V163.949Z" fill="#1F3300"/>
<path d="M172.114 163.775V164.191C172.114 165.137 172.249 166.092 172.549 166.903H172.472C171.777 166.16 170.56 165.552 168.948 165.552C166.718 165.552 165.048 167.009 164.334 168.573L165.811 170.243C166.216 170.108 166.67 170.04 167.114 170.04C167.8 170.04 168.128 170.455 168.128 170.909C168.128 171.758 167.153 172.646 165.483 173.448L167.259 175.272C169.276 174.191 170.56 172.608 170.56 171.015C170.56 169.307 169.219 168.486 167.983 168.486C167.674 168.486 167.307 168.525 166.998 168.612C167.481 168.129 168.263 167.781 169.151 167.781C170.888 167.781 172.124 168.853 172.124 170.87V177.222H174.547V167.444H176.284V165.552H174.547V163.775H172.114Z" fill="#1F3300"/>
<path d="M174.316 162.511C173.437 162.714 172.424 162.945 170.908 162.945C169.383 162.945 168.958 162.607 168.958 162.212C168.958 161.719 169.537 161.343 171.053 161.343C174.354 161.343 177.067 162.559 177.327 165.552H175.59V167.443H177.327V177.222H179.76V167.443H181.507V165.552H179.76C179.538 161.806 175.677 159.325 170.889 159.325C168.147 159.325 166.477 160.484 166.477 162.154C166.477 163.843 168.041 164.799 170.281 164.799C171.034 164.799 171.989 164.702 172.375 164.557V165.552H174.547V162.694L174.316 162.511Z" fill="#1F3300"/>
</g>
<defs>
<clipPath id="clip0_2_178">
<rect width="195" height="195" fill="white"/>
</clipPath>
</defs>
</svg>
