<svg width="525" height="195" viewBox="0 0 525 195" fill="none" xmlns="http://www.w3.org/2000/svg">
<path d="M123.668 171.75C118.406 171.75 114.129 167.473 114.129 162.211C114.129 156.953 118.406 152.672 123.668 152.672C128.926 152.672 133.203 156.953 133.203 162.211C133.203 167.473 128.926 171.75 123.668 171.75ZM143.512 21.8359H134.715C127.41 21.8359 120.613 25.4531 116.531 31.5117L94.7109 63.9141C94.082 64.8438 93.1836 64.9844 92.6992 64.9844H92.6953C92.2148 64.9844 91.3125 64.8438 90.6836 63.9102L68.9648 31.5391C64.8867 25.4648 58.082 21.8359 50.7617 21.8359H41.8516C28.9688 21.8359 18.4844 32.3164 18.4844 45.2031V146.863C18.4844 159.75 28.9688 170.23 41.8516 170.23H77.332C90.2188 170.23 100.703 159.75 100.703 146.863V140.422C119.266 139.309 134.027 123.863 134.027 105.023V101.023C136.797 98.7227 138.562 95.25 138.562 91.3672C138.562 84.4336 132.941 78.8164 126.008 78.8164C119.074 78.8164 113.453 84.4336 113.453 91.3672C113.453 95.25 115.219 98.7187 117.988 101.023V105.023C117.988 115.738 109.273 124.453 98.5625 124.453H86.8047C76.0937 124.453 67.3789 115.738 67.3789 105.023V101.023C70.1484 98.7227 71.9102 95.25 71.9102 91.3672C71.9102 84.4336 66.293 78.8164 59.3594 78.8164C52.4258 78.8164 46.8047 84.4336 46.8047 91.3672C46.8047 95.25 48.5703 98.7227 51.3398 101.023V105.023C51.3398 123.859 66.1016 139.309 84.6641 140.422V146.863C84.6641 150.906 81.375 154.191 77.332 154.191H41.8516C37.8125 154.191 34.5234 150.906 34.5234 146.863V45.2031C34.5234 41.1641 37.8125 37.875 41.8516 37.875H50.7617C52.7266 37.875 54.5547 38.8477 55.6484 40.4766L77.3672 72.8477C80.8008 77.9609 86.5234 81.0156 92.6836 81.0234H92.6992C98.8516 81.0234 104.578 77.9766 108.012 72.8711L129.836 40.4688C130.934 38.8438 132.754 37.875 134.715 37.875H143.512C147.555 37.875 150.844 41.1641 150.844 45.2031V146.863C150.844 150.906 147.555 154.191 143.512 154.191H137.438C134.664 149.457 129.539 146.258 123.668 146.258C114.871 146.258 107.715 153.414 107.715 162.211C107.715 171.008 114.871 178.164 123.668 178.164C129.539 178.164 134.664 174.969 137.438 170.23H143.512C156.398 170.23 166.883 159.75 166.883 146.863V45.2031C166.883 32.3164 156.398 21.8359 143.512 21.8359Z" fill="#00BA6E"/>
<path d="M123.668 156.445C120.484 156.445 117.902 159.027 117.902 162.211C117.902 165.395 120.484 167.977 123.668 167.977C126.852 167.977 129.43 165.395 129.43 162.211C129.43 159.027 126.852 156.445 123.668 156.445Z" fill="#00BA6E"/>
<path d="M235.773 80.0156H236.023L244.132 56.625H258.289V100H249.257V67.8906H249.007L239.367 94.7969H231.57L222.039 67.8906H221.664V100H213.007V56.625H227.539L235.773 80.0156Z" fill="white"/>
<path d="M265.893 112.125C266.768 112.562 269.112 113.172 271.596 113.172C279.752 113.172 283.221 107.859 285.206 101.734L296.956 65.0469H287.315L284.034 76.9219C282.737 81.625 281.924 85.9531 281.424 89.1094H281.19C280.752 86.1406 279.393 80.875 278.096 76.9219L274.19 65.0469H263.737L276.846 99.875C276.549 103.406 274.565 105.328 271.221 105.328C269.674 105.328 268.377 104.953 267.44 104.453L265.893 112.125Z" fill="white"/>
<path d="M319.481 100H333.091C349.06 100 353.45 88.4219 353.45 77.3594C353.45 63.5 347.075 56.625 332.966 56.625H319.481V100ZM328.888 64.4219H332.278C339.153 64.4219 343.731 67.7656 343.731 78.2188C343.731 86.5781 341.2 92.2031 332.341 92.2031H328.888V64.4219Z" fill="white"/>
<path d="M368.226 82.2969C368.226 75.1875 370.085 71.7188 374.351 71.7188C379.179 71.7188 380.976 75.5625 380.976 82.7969C380.976 89.9219 379.492 93.375 374.726 93.375C370.023 93.375 368.226 89.5469 368.226 82.2969ZM374.414 100.688C385.992 100.688 390.57 93.1875 390.57 82.4219C390.57 71.5938 386.789 64.4219 374.726 64.4219C363.164 64.4219 358.632 71.9062 358.632 82.6719C358.632 93.5 362.414 100.688 374.414 100.688Z" fill="white"/>
<path d="M395.258 82.8594C395.258 95.4844 401.024 100.688 410.493 100.688C417.915 100.688 421.258 97.7656 423.227 95.1094L417.29 89.6094C416.43 91.1562 414.446 93.0156 411.352 93.0156C406.961 93.0156 404.79 89.5469 404.79 82.125C404.79 74.5 407.399 72.0312 411.415 72.0312C414.946 72.0312 416.743 74.5 417.227 75.375L423.477 69.4375C421.133 66.2812 417.04 64.3594 411.415 64.3594C401.946 64.3594 395.258 70.5469 395.258 82.8594Z" fill="white"/>
<path d="M439.377 100.312C445.19 100.312 447.924 99.0156 449.096 98.1406L446.674 91.1562C445.315 92.2031 443.409 92.7031 441.909 92.7031C439.627 92.7031 438.268 91.4688 438.268 89.0469V72.1562H446.987V65.0469H438.268V56.25H432.331L429.112 64.4844L424.596 66.3438V72.1562H429.049V88.7969C429.049 97.2812 433.377 100.312 439.377 100.312Z" fill="white"/>
<path d="M460.905 82.2969C460.905 75.1875 462.764 71.7188 467.03 71.7188C471.858 71.7188 473.655 75.5625 473.655 82.7969C473.655 89.9219 472.17 93.375 467.405 93.375C462.702 93.375 460.905 89.5469 460.905 82.2969ZM467.092 100.688C478.67 100.688 483.249 93.1875 483.249 82.4219C483.249 71.5938 479.467 64.4219 467.405 64.4219C455.842 64.4219 451.311 71.9062 451.311 82.6719C451.311 93.5 455.092 100.688 467.092 100.688Z" fill="white"/>
<path d="M511.265 64.6094C510.468 64.4219 509.296 64.2969 508.296 64.2969C503.718 64.2969 500.687 66.7656 499.265 70.1719H499.015L497.109 65.0469H489.796V100H499.078V76.2969C501.125 74.625 504.343 73.5156 507.25 73.5156C508.484 73.5156 510.031 73.5781 511.265 73.8281V64.6094Z" fill="white"/>
<path d="M244.744 121.846C244.744 123.252 245.041 124.549 245.462 125.658H245.244C244.884 125.221 244.166 124.611 242.775 124.611H212.994V127.893H235.619V134.752C235.619 136.408 235.728 138.674 235.978 139.424L235.884 139.486L233.322 137.986C233.572 137.174 233.681 136.299 233.681 135.33C233.681 131.627 231.072 128.861 227.306 128.861C224.259 128.861 222.056 131.002 222.056 133.549C222.056 135.268 222.994 136.893 224.712 137.439L227.416 135.361C226.634 135.064 226.275 134.549 226.275 133.908C226.275 133.189 226.791 132.643 227.634 132.643C228.806 132.643 229.619 133.674 229.619 135.299C229.619 137.674 228.244 139.33 225.65 139.33C221.666 139.33 219.15 135.205 217.931 129.643L214.181 131.439C215.916 138.189 219.587 143.096 225.681 143.096C228.056 143.096 230.009 142.377 231.369 141.111L238.541 145.299L241.212 142.549L239.744 141.689V127.893H241.666C243.556 127.893 244.556 128.471 244.556 131.408V144.814H248.775V127.893H251.775V124.611H248.775V121.533H244.744V121.846Z" fill="white"/>
<path d="M256.804 128.893C257.538 128.377 258.616 127.83 260.179 127.83C262.194 127.83 263.585 128.799 264.46 130.361L260.694 132.893C259.944 130.783 258.647 129.455 256.804 128.893ZM269.757 144.814V127.893H272.772V124.611H269.757V121.533H265.538V122.236C265.538 123.314 265.538 124.908 266.288 127.143L266.21 127.205C265.304 126.033 263.257 124.346 259.882 124.346C256.085 124.346 253.194 126.455 251.726 128.502L253.647 131.33C254.132 131.361 254.554 131.439 254.913 131.564C256.538 132.111 257.257 133.611 257.71 134.939L255.101 136.689L257.116 139.658L265.507 133.861C265.569 134.424 265.601 135.002 265.601 135.627V144.814H269.757Z" fill="white"/>
<path d="M278.602 138.549C278.008 138.127 277.555 137.471 277.555 136.596C277.555 135.393 278.43 134.814 279.696 134.814C283.305 134.814 285.899 140.33 285.899 144.627V144.814H290.102V127.893H293.118V124.611H271.586V127.893H285.899V130.236C285.899 131.83 286.008 133.377 286.165 134.486L286.04 134.518C284.602 132.205 282.227 131.002 279.446 131.002C275.899 131.002 273.305 132.986 273.305 136.564C273.305 138.158 273.946 139.33 274.852 140.111L278.602 138.549Z" fill="white"/>
<path d="M295.112 121.846C295.112 123.252 295.409 124.549 295.831 125.658H295.612C295.252 125.221 294.534 124.611 293.143 124.611H291.909V127.893H292.034C293.94 127.893 294.924 128.471 294.924 131.408V144.814H299.143V127.893H302.159V124.611H299.143V121.533H295.112V121.846Z" fill="white"/>
<path d="M303.473 146.018C303.473 147.549 304.566 148.549 305.941 148.549C307.332 148.549 308.379 147.549 308.379 146.018C308.379 144.486 307.332 143.518 305.941 143.518C304.566 143.518 303.473 144.486 303.473 146.018ZM312.145 127.893H300.941V124.611H319.285V127.893H316.27V141.689L317.754 142.549L315.066 145.299L302.598 138.033V134.705C303.926 133.283 307.598 130.236 312.145 129.002V127.893ZM312.145 132.955C309.676 133.877 307.535 135.518 306.879 136.268L312.395 139.455H312.504C312.27 138.705 312.145 136.596 312.145 134.752V132.955Z" fill="white"/>
<path d="M345.722 122.143C343.285 120.33 340.269 119.408 337.675 119.408C335.16 119.408 333.707 120.689 333.707 122.924V124.611H336.722V127.893H333.707V144.814H329.519V127.893H326.503V124.611H329.519V122.689C329.519 118.768 332.347 115.705 337.597 115.705C341.863 115.705 345.535 117.268 348.035 119.158L345.722 122.143Z" fill="white"/>
<path d="M346.709 127.893H335.506V124.611H353.85V127.893H350.834V141.689L352.318 142.549L349.631 145.299L337.162 138.033V134.705C338.49 133.283 342.162 130.236 346.709 129.002V127.893ZM346.709 132.955C344.24 133.877 342.1 135.518 341.443 136.268L346.959 139.455H347.068C346.834 138.705 346.709 136.596 346.709 134.752V132.955Z" fill="white"/>
<path d="M354.153 136.049C354.481 136.143 354.966 136.236 355.513 136.236C357.169 136.236 358.638 135.564 359.747 134.424C360.81 135.518 362.31 136.143 363.966 136.143C364.45 136.143 364.841 136.08 365.075 136.018V132.643C364.778 132.705 364.481 132.736 364.185 132.736C362.7 132.736 361.528 131.924 361.528 130.361C361.528 128.736 362.466 127.924 363.966 127.924C365.685 127.924 366.731 128.971 366.731 131.299V136.268C363.481 137.502 360.106 139.549 358.606 140.846V144.721L369.685 149.596L372.153 146.768L370.622 146.111V127.893H373.638V124.611H370.622V121.533H366.856V122.658C366.856 123.564 367.044 124.971 367.247 125.814H367.122C366.7 125.361 365.747 124.518 363.669 124.518C362.013 124.518 360.747 125.127 359.716 126.143C358.638 125.158 357.185 124.611 355.356 124.611H352.638V127.893H355.138C357.044 127.893 357.919 128.736 357.919 130.33C357.919 132.08 356.888 132.799 355.294 132.799C354.872 132.799 354.513 132.768 354.153 132.705V136.049ZM366.856 144.455L362.372 142.502C363.7 141.658 365.075 140.783 366.731 140.08C366.731 141.502 366.856 143.221 367.013 144.455H366.856Z" fill="white"/>
<path d="M375.716 129.736L373.685 132.314C374.872 133.799 376.638 134.424 378.122 134.424C380.278 134.424 381.763 133.314 382.544 131.596C382.81 132.143 383.122 132.596 383.45 132.986C382.903 133.674 382.606 134.518 382.606 135.518C382.606 137.346 383.653 138.846 385.138 139.424L387.481 137.189C386.794 136.986 386.403 136.408 386.403 135.814C386.403 135.096 386.966 134.643 387.638 134.643C388.841 134.643 389.435 135.814 389.435 137.346C389.435 139.689 387.997 141.377 385.435 141.377C382.325 141.377 380.075 138.908 378.716 135.236L375.685 137.408C377.388 141.236 380.466 144.814 385.466 144.814C390.075 144.814 393.169 141.893 393.169 137.408C393.169 135.658 392.622 134.096 391.606 132.986C392.388 132.143 392.81 130.971 392.81 129.58C392.81 129.033 392.747 128.502 392.622 127.893H395.794V124.611H372.419V127.893H380.528C380.247 129.705 379.56 131.049 378.122 131.049C377.216 131.049 376.497 130.58 375.716 129.736ZM388.981 129.221C388.981 130.236 388.481 131.111 387.294 131.111C385.731 131.111 384.856 129.674 384.747 127.893H388.747C388.903 128.189 388.981 128.643 388.981 129.221Z" fill="white"/>
<path d="M409.041 141.502C410.76 141.502 412.494 140.596 413.885 139.064C415.088 137.736 415.838 136.377 416.963 136.377C417.588 136.377 417.979 136.799 417.979 137.471V144.814H422.229V127.893H425.213V124.611H403.01V127.893H407.025V129.064L408.166 130.236C409.635 131.752 411.025 133.377 411.025 135.596C411.025 136.83 410.338 137.83 409.01 137.83C407.557 137.83 406.963 136.768 406.479 135.689L403.322 137.611C404.041 139.549 405.822 141.502 409.041 141.502ZM418.072 132.596C417.713 132.439 417.416 132.377 416.9 132.377C415.838 132.377 414.947 133.158 414.307 133.736C414.275 133.314 414.213 132.861 414.104 132.408C413.822 131.393 413.26 130.299 412.229 129.033L411.385 128.018V127.893H417.979V129.908C417.979 130.361 418.01 131.893 418.072 132.596Z" fill="white"/>
<path d="M432.885 140.986C434.088 141.268 434.963 141.596 436.947 142.736L439.119 144.002L436.354 146.799C429.9 142.893 429.15 142.252 426.291 142.049V138.736H428.338C431.947 138.736 434.182 137.471 434.182 135.096C434.182 133.611 433.4 132.564 431.979 132.564C431.104 132.564 430.479 133.064 430.479 133.908C430.479 134.549 430.838 135.064 431.65 135.361L428.885 137.439C427.135 136.768 426.322 135.268 426.322 133.549C426.322 131.002 428.4 128.861 432.01 128.861C435.807 128.861 438.244 131.471 438.244 135.096C438.244 138.643 435.807 140.455 432.885 140.877V140.986ZM424.025 127.893V124.611H440.479V127.893H424.025Z" fill="white"/>
<path d="M449.354 142.377C446.792 141.314 445.386 139.424 445.386 136.143C445.386 132.799 446.464 130.096 447.573 127.893H449.745V124.611H439.261V127.893H443.214C442.104 130.064 441.229 132.924 441.229 136.111C441.229 141.314 443.839 144.549 447.433 145.689L449.354 142.377Z" fill="white"/>
<path d="M454.862 127.893H460.487V133.705C460.487 135.361 460.644 138.064 460.862 139.58H460.737L454.737 136.268L458.206 133.643V130.814L454.862 128.018V127.893ZM463.409 145.299L466.034 142.549L464.612 141.736V127.893H467.628V124.611H448.534V127.893H450.644V129.064L454.269 132.111L450.644 134.846V138.189L463.409 145.299Z" fill="white"/>
<path d="M469.622 121.846C469.622 123.252 469.918 124.549 470.34 125.658H470.122C469.762 125.221 469.043 124.611 467.653 124.611H466.418V127.893H466.543C468.45 127.893 469.434 128.471 469.434 131.408V144.814H473.653V127.893H476.668V124.611H473.653V121.533H469.622V121.846Z" fill="white"/>
<path d="M490.123 121.533V122.268C490.123 123.893 490.357 125.549 490.873 126.955H490.748C489.545 125.658 487.436 124.611 484.639 124.611C480.795 124.611 477.904 127.143 476.67 129.846L479.217 132.736C479.92 132.502 480.701 132.377 481.482 132.377C482.654 132.377 483.232 133.096 483.232 133.877C483.232 135.361 481.545 136.893 478.654 138.283L481.717 141.439C485.217 139.58 487.436 136.83 487.436 134.064C487.436 131.111 485.123 129.705 482.982 129.705C482.451 129.705 481.811 129.752 481.264 129.908C482.107 129.064 483.467 128.471 484.998 128.471C488.014 128.471 490.154 130.33 490.154 133.83V144.814H494.342V127.893H497.342V124.611H494.342V121.533H490.123Z" fill="white"/>
<path d="M493.948 119.346C492.417 119.705 490.667 120.096 488.042 120.096C485.401 120.096 484.667 119.518 484.667 118.83C484.667 117.986 485.667 117.33 488.292 117.33C494.011 117.33 498.698 119.439 499.151 124.611H496.136V127.893H499.151V144.814H503.37V127.893H506.386V124.611H503.37C502.979 118.143 496.292 113.83 488.011 113.83C483.261 113.83 480.37 115.846 480.37 118.736C480.37 121.658 483.073 123.314 486.964 123.314C488.261 123.314 489.917 123.143 490.573 122.893V124.611H494.339V119.674L493.948 119.346Z" fill="white"/>
</svg>
