<svg width="525" height="195" viewBox="0 0 525 195" fill="none" xmlns="http://www.w3.org/2000/svg">
<g clip-path="url(#clip0_2_63)">
<path d="M122.95 170.155C117.75 170.155 113.523 165.928 113.523 160.728C113.523 155.532 117.75 151.301 122.95 151.301C128.146 151.301 132.373 155.532 132.373 160.728C132.373 165.928 128.146 170.155 122.95 170.155ZM142.561 22H133.867C126.648 22 119.931 25.5748 115.897 31.5623L94.3324 63.5845C93.7109 64.5033 92.823 64.6423 92.3443 64.6423H92.3404C91.8656 64.6423 90.9738 64.5033 90.3523 63.5807L68.8883 31.5893C64.858 25.5863 58.1332 22 50.8987 22H42.0931C29.3614 22 19 32.3575 19 45.0931V145.561C19 158.296 29.3614 168.654 42.0931 168.654H77.1573C89.8929 168.654 100.254 158.296 100.254 145.561V139.195C118.599 138.095 133.188 122.831 133.188 104.212V100.259C135.925 97.9848 137.67 94.5529 137.67 90.7156C137.67 83.8634 132.114 78.3121 125.262 78.3121C118.41 78.3121 112.855 83.8634 112.855 90.7156C112.855 94.5529 114.6 97.9809 117.337 100.259V104.212C117.337 114.801 108.724 123.413 98.1388 123.413H86.5189C75.9336 123.413 67.321 114.801 67.321 104.212V100.259C70.058 97.9848 71.7991 94.5529 71.7991 90.7156C71.7991 83.8634 66.2478 78.3121 59.3955 78.3121C52.5433 78.3121 46.9881 83.8634 46.9881 90.7156C46.9881 94.5529 48.733 97.9848 51.4701 100.259V104.212C51.4701 122.827 66.0586 138.095 84.4034 139.195V145.561C84.4034 149.556 81.1529 152.803 77.1573 152.803H42.0931C38.1014 152.803 34.8509 149.556 34.8509 145.561V45.0931C34.8509 41.1014 38.1014 37.8509 42.0931 37.8509H50.8987C52.8405 37.8509 54.6472 38.8122 55.7281 40.422L77.1921 72.4133C80.5854 77.4666 86.2409 80.4855 92.3288 80.4932H92.3443C98.4244 80.4932 104.084 77.4821 107.477 72.4365L129.045 40.4142C130.13 38.8083 131.929 37.8509 133.867 37.8509H142.561C146.556 37.8509 149.807 41.1014 149.807 45.0931V145.561C149.807 149.556 146.556 152.803 142.561 152.803H136.558C133.817 148.124 128.752 144.962 122.95 144.962C114.256 144.962 107.184 152.035 107.184 160.728C107.184 169.422 114.256 176.494 122.95 176.494C128.752 176.494 133.817 173.336 136.558 168.654H142.561C155.296 168.654 165.658 158.296 165.658 145.561V45.0931C165.658 32.3575 155.296 22 142.561 22Z" fill="#00BA6E"/>
<path d="M122.95 155.03C119.803 155.03 117.252 157.582 117.252 160.728C117.252 163.875 119.803 166.426 122.95 166.426C126.096 166.426 128.644 163.875 128.644 160.728C128.644 157.582 126.096 155.03 122.95 155.03Z" fill="#00BA6E"/>
<path d="M233.74 79.4972H233.987L242.001 56.381H255.991V99.2472H247.066V67.5145H246.819L237.291 94.1051H229.586L220.166 67.5145H219.796V99.2472H211.241V56.381H225.602L233.74 79.4972Z" fill="#1F3300"/>
<path d="M263.506 111.23C264.371 111.662 266.687 112.264 269.143 112.264C277.203 112.264 280.631 107.014 282.592 100.961L294.205 64.704H284.677L281.434 76.4397C280.153 81.0876 279.35 85.365 278.856 88.4842H278.624C278.192 85.5503 276.848 80.3464 275.566 76.4397L271.706 64.704H261.375L274.331 99.1236C274.038 102.613 272.077 104.513 268.772 104.513C267.243 104.513 265.962 104.142 265.035 103.648L263.506 111.23Z" fill="#1F3300"/>
<path d="M316.466 99.2472H329.916C345.697 99.2472 350.036 87.8049 350.036 76.8721C350.036 63.1753 343.736 56.381 329.792 56.381H316.466V99.2472ZM325.762 64.0864H329.113C335.907 64.0864 340.432 67.3909 340.432 77.7214C340.432 85.9827 337.93 91.5418 329.175 91.5418H325.762V64.0864Z" fill="#1F3300"/>
<path d="M364.639 81.7517C364.639 74.7258 366.476 71.2977 370.692 71.2977C375.464 71.2977 377.239 75.0964 377.239 82.2459C377.239 89.2873 375.772 92.6999 371.063 92.6999C366.415 92.6999 364.639 88.9167 364.639 81.7517ZM370.754 99.9266C382.196 99.9266 386.721 92.5146 386.721 81.8753C386.721 71.1742 382.984 64.0864 371.063 64.0864C359.636 64.0864 355.158 71.483 355.158 82.1223C355.158 92.8234 358.895 99.9266 370.754 99.9266Z" fill="#1F3300"/>
<path d="M391.354 82.3075C391.354 94.7844 397.052 99.9265 406.41 99.9265C413.745 99.9265 417.049 97.0389 418.995 94.4138L413.127 88.9783C412.278 90.5071 410.317 92.3446 407.259 92.3446C402.92 92.3446 400.774 88.9166 400.774 81.5818C400.774 74.0462 403.352 71.6064 407.321 71.6064C410.811 71.6064 412.586 74.0462 413.065 74.9109L419.242 69.0431C416.926 65.9239 412.88 64.0245 407.321 64.0245C397.963 64.0245 391.354 70.1395 391.354 82.3075Z" fill="#1F3300"/>
<path d="M434.956 99.556C440.7 99.556 443.402 98.2743 444.56 97.4096L442.167 90.5072C440.823 91.5418 438.94 92.0359 437.457 92.0359C435.203 92.0359 433.859 90.816 433.859 88.4225V71.73H442.476V64.7041H433.859V56.0104H427.991L424.81 64.1482L420.348 65.9857V71.73H424.749V88.1755C424.749 96.5603 429.026 99.556 434.956 99.556Z" fill="#1F3300"/>
<path d="M456.23 81.7517C456.23 74.7258 458.068 71.2977 462.284 71.2977C467.055 71.2977 468.831 75.0964 468.831 82.2459C468.831 89.2873 467.364 92.6999 462.654 92.6999C458.006 92.6999 456.23 88.9167 456.23 81.7517ZM462.345 99.9266C473.788 99.9266 478.312 92.5146 478.312 81.8753C478.312 71.1742 474.575 64.0864 462.654 64.0864C451.227 64.0864 446.749 71.483 446.749 82.1223C446.749 92.8234 450.486 99.9266 462.345 99.9266Z" fill="#1F3300"/>
<path d="M506 64.2716C505.212 64.0863 504.054 63.9628 503.066 63.9628C498.542 63.9628 495.546 66.4026 494.141 69.7689H493.894L492.01 64.704H484.783V99.2471H493.955V75.822C495.978 74.1697 499.159 73.0734 502.031 73.0734C503.251 73.0734 504.78 73.1351 506 73.3822V64.2716Z" fill="#1F3300"/>
<path d="M242.605 120.837C242.605 122.226 242.899 123.508 243.315 124.604H243.099C242.744 124.172 242.034 123.57 240.659 123.57H211.228V126.813H233.587V133.592C233.587 135.228 233.695 137.467 233.942 138.209L233.85 138.27L231.317 136.788C231.564 135.985 231.672 135.12 231.672 134.163C231.672 130.503 229.094 127.77 225.372 127.77C222.361 127.77 220.184 129.886 220.184 132.403C220.184 134.101 221.11 135.707 222.809 136.247L225.48 134.194C224.708 133.9 224.353 133.391 224.353 132.758C224.353 132.047 224.863 131.507 225.696 131.507C226.855 131.507 227.658 132.526 227.658 134.132C227.658 136.479 226.299 138.116 223.735 138.116C219.798 138.116 217.312 134.039 216.107 128.542L212.401 130.318C214.115 136.989 217.744 141.837 223.766 141.837C226.113 141.837 228.044 141.127 229.387 139.876L236.475 144.015L239.115 141.297L237.664 140.448V126.813H239.563C241.432 126.813 242.42 127.384 242.42 130.287V143.536H246.589V126.813H249.554V123.57H246.589V120.528H242.605V120.837Z" fill="#1F3300"/>
<path d="M254.524 127.801C255.249 127.291 256.315 126.751 257.859 126.751C259.851 126.751 261.225 127.708 262.09 129.252L258.369 131.754C257.627 129.669 256.346 128.357 254.524 127.801ZM267.325 143.536V126.813H270.305V123.57H267.325V120.528H263.156V121.223C263.156 122.288 263.156 123.863 263.897 126.071L263.82 126.133C262.924 124.975 260.901 123.307 257.566 123.307C253.813 123.307 250.957 125.392 249.505 127.415L251.404 130.21C251.883 130.241 252.3 130.318 252.655 130.441C254.261 130.982 254.971 132.464 255.419 133.777L252.841 135.506L254.833 138.44L263.125 132.711C263.186 133.267 263.217 133.839 263.217 134.456V143.536H267.325Z" fill="#1F3300"/>
<path d="M276.066 137.344C275.48 136.927 275.032 136.278 275.032 135.414C275.032 134.225 275.896 133.653 277.147 133.653C280.714 133.653 283.278 139.104 283.278 143.351V143.536H287.431V126.813H290.412V123.57H269.133V126.813H283.278V129.129C283.278 130.704 283.386 132.233 283.54 133.329L283.417 133.36C281.996 131.074 279.649 129.885 276.9 129.885C273.395 129.885 270.832 131.847 270.832 135.383C270.832 136.958 271.465 138.116 272.36 138.888L276.066 137.344Z" fill="#1F3300"/>
<path d="M292.382 120.837C292.382 122.226 292.676 123.508 293.093 124.604H292.876C292.521 124.172 291.811 123.57 290.437 123.57H289.217V126.813H289.34C291.224 126.813 292.197 127.384 292.197 130.287V143.536H296.366V126.813H299.347V123.57H296.366V120.528H292.382V120.837Z" fill="#1F3300"/>
<path d="M300.645 144.725C300.645 146.238 301.726 147.227 303.085 147.227C304.459 147.227 305.494 146.238 305.494 144.725C305.494 143.212 304.459 142.254 303.085 142.254C301.726 142.254 300.645 143.212 300.645 144.725ZM309.215 126.813H298.143V123.57H316.272V126.813H313.292V140.448L314.759 141.297L312.103 144.015L299.78 136.834V133.545C301.093 132.14 304.722 129.129 309.215 127.909V126.813ZM309.215 131.816C306.775 132.727 304.66 134.348 304.011 135.089L309.462 138.239H309.57C309.339 137.498 309.215 135.414 309.215 133.591V131.816Z" fill="#1F3300"/>
<path d="M342.399 121.13C339.99 119.339 337.01 118.428 334.447 118.428C331.961 118.428 330.525 119.694 330.525 121.902V123.57H333.505V126.813H330.525V143.536H326.386V126.813H323.406V123.57H326.386V121.671C326.386 117.795 329.181 114.768 334.37 114.768C338.585 114.768 342.214 116.312 344.685 118.181L342.399 121.13Z" fill="#1F3300"/>
<path d="M343.375 126.813H332.303V123.57H350.431V126.813H347.451V140.448L348.918 141.297L346.262 144.015L333.94 136.834V133.545C335.252 132.14 338.881 129.129 343.375 127.909V126.813ZM343.375 131.816C340.935 132.727 338.819 134.348 338.171 135.089L343.622 138.239H343.73C343.498 137.498 343.375 135.414 343.375 133.591V131.816Z" fill="#1F3300"/>
<path d="M350.732 134.873C351.056 134.966 351.534 135.058 352.075 135.058C353.712 135.058 355.163 134.394 356.26 133.267C357.31 134.348 358.792 134.966 360.429 134.966C360.908 134.966 361.294 134.904 361.525 134.842V131.507C361.232 131.569 360.938 131.6 360.645 131.6C359.178 131.6 358.02 130.797 358.02 129.252C358.02 127.646 358.947 126.843 360.429 126.843C362.128 126.843 363.162 127.878 363.162 130.179V135.089C359.95 136.309 356.615 138.332 355.132 139.614V143.443L366.081 148.261L368.52 145.466L367.007 144.818V126.813H369.987V123.57H367.007V120.528H363.286V121.64C363.286 122.535 363.471 123.925 363.672 124.759H363.548C363.131 124.311 362.189 123.477 360.136 123.477C358.499 123.477 357.248 124.079 356.229 125.083C355.163 124.11 353.727 123.57 351.921 123.57H349.234V126.813H351.704C353.588 126.813 354.453 127.646 354.453 129.222C354.453 130.951 353.434 131.661 351.859 131.661C351.442 131.661 351.087 131.63 350.732 131.569V134.873ZM363.286 143.181L358.854 141.251C360.166 140.417 361.525 139.552 363.162 138.857C363.162 140.262 363.286 141.961 363.44 143.181H363.286Z" fill="#1F3300"/>
<path d="M372.041 128.635L370.034 131.183C371.207 132.65 372.952 133.267 374.419 133.267C376.55 133.267 378.017 132.171 378.789 130.472C379.052 131.013 379.361 131.461 379.685 131.847C379.144 132.526 378.851 133.36 378.851 134.348C378.851 136.155 379.886 137.637 381.353 138.209L383.669 136C382.989 135.8 382.603 135.228 382.603 134.642C382.603 133.931 383.159 133.483 383.823 133.483C385.012 133.483 385.599 134.642 385.599 136.155C385.599 138.471 384.178 140.139 381.646 140.139C378.573 140.139 376.349 137.699 375.006 134.07L372.01 136.217C373.694 140 376.736 143.536 381.677 143.536C386.232 143.536 389.29 140.648 389.29 136.217C389.29 134.487 388.749 132.943 387.745 131.847C388.518 131.013 388.934 129.855 388.934 128.48C388.934 127.94 388.873 127.415 388.749 126.813H391.884V123.57H368.783V126.813H376.797C376.519 128.604 375.84 129.932 374.419 129.932C373.524 129.932 372.813 129.469 372.041 128.635ZM385.151 128.125C385.151 129.129 384.657 129.994 383.484 129.994C381.939 129.994 381.075 128.573 380.967 126.813H384.92C385.074 127.106 385.151 127.554 385.151 128.125Z" fill="#1F3300"/>
<path d="M404.975 140.262C406.674 140.262 408.388 139.367 409.762 137.853C410.951 136.541 411.692 135.197 412.804 135.197C413.422 135.197 413.808 135.614 413.808 136.278V143.536H418.008V126.813H420.957V123.57H399.015V126.813H402.983V127.971L404.11 129.129C405.562 130.627 406.936 132.233 406.936 134.425C406.936 135.645 406.257 136.634 404.944 136.634C403.508 136.634 402.921 135.583 402.443 134.518L399.324 136.417C400.034 138.332 401.794 140.262 404.975 140.262ZM413.9 131.461C413.545 131.306 413.252 131.244 412.742 131.244C411.692 131.244 410.812 132.016 410.179 132.588C410.148 132.171 410.086 131.723 409.978 131.275C409.7 130.272 409.144 129.191 408.125 127.94L407.291 126.936V126.813H413.808V128.805C413.808 129.252 413.839 130.766 413.9 131.461Z" fill="#1F3300"/>
<path d="M428.539 139.753C429.728 140.031 430.593 140.355 432.554 141.482L434.701 142.733L431.968 145.497C425.59 141.637 424.849 141.004 422.023 140.803V137.529H424.046C427.613 137.529 429.821 136.278 429.821 133.931C429.821 132.464 429.049 131.43 427.644 131.43C426.779 131.43 426.161 131.924 426.161 132.758C426.161 133.391 426.517 133.9 427.32 134.194L424.586 136.247C422.857 135.583 422.054 134.101 422.054 132.402C422.054 129.885 424.108 127.77 427.675 127.77C431.427 127.77 433.836 130.349 433.836 133.931C433.836 137.436 431.427 139.228 428.539 139.645V139.753ZM419.784 126.813V123.57H436.044V126.813H419.784Z" fill="#1F3300"/>
<path d="M444.816 141.127C442.283 140.077 440.893 138.209 440.893 134.966C440.893 131.661 441.959 128.99 443.055 126.813H445.202V123.57H434.84V126.813H438.747C437.651 128.959 436.786 131.785 436.786 134.935C436.786 140.077 439.365 143.273 442.916 144.401L444.816 141.127Z" fill="#1F3300"/>
<path d="M450.259 126.813H455.818V132.557C455.818 134.194 455.972 136.865 456.189 138.363H456.065L450.135 135.089L453.563 132.495V129.7L450.259 126.936V126.813ZM458.706 144.015L461.3 141.297L459.895 140.494V126.813H462.875V123.57H444.005V126.813H446.09V127.971L449.672 130.982L446.09 133.684V136.989L458.706 144.015Z" fill="#1F3300"/>
<path d="M464.845 120.837C464.845 122.226 465.139 123.508 465.556 124.604H465.339C464.984 124.172 464.274 123.57 462.9 123.57H461.68V126.813H461.803C463.687 126.813 464.66 127.384 464.66 130.287V143.536H468.829V126.813H471.81V123.57H468.829V120.528H464.845V120.837Z" fill="#1F3300"/>
<path d="M485.106 120.528V121.254C485.106 122.86 485.338 124.496 485.847 125.886H485.724C484.535 124.604 482.45 123.57 479.686 123.57C475.887 123.57 473.031 126.071 471.811 128.743L474.328 131.6C475.023 131.368 475.795 131.244 476.567 131.244C477.725 131.244 478.296 131.955 478.296 132.727C478.296 134.194 476.629 135.707 473.772 137.081L476.799 140.201C480.257 138.363 482.45 135.645 482.45 132.912C482.45 129.994 480.165 128.604 478.049 128.604C477.524 128.604 476.891 128.65 476.351 128.805C477.185 127.971 478.528 127.384 480.041 127.384C483.022 127.384 485.137 129.222 485.137 132.68V143.536H489.275V126.813H492.24V123.57H489.275V120.528H485.106Z" fill="#1F3300"/>
<path d="M488.887 118.366C487.373 118.721 485.644 119.107 483.05 119.107C480.44 119.107 479.714 118.536 479.714 117.856C479.714 117.023 480.703 116.374 483.297 116.374C488.948 116.374 493.581 118.459 494.029 123.57H491.048V126.813H494.029V143.536H498.198V126.813H501.178V123.57H498.198C497.812 117.177 491.203 112.915 483.019 112.915C478.325 112.915 475.468 114.907 475.468 117.764C475.468 120.651 478.139 122.288 481.984 122.288C483.266 122.288 484.903 122.118 485.551 121.871V123.57H489.273V118.69L488.887 118.366Z" fill="#1F3300"/>
</g>
<defs>
<clipPath id="clip0_2_63">
<rect width="525" height="195" fill="white"/>
</clipPath>
</defs>
</svg>
