<svg width="32" height="32" viewBox="0 0 32 32" fill="none" xmlns="http://www.w3.org/2000/svg">
<rect width="32" height="32" rx="16" fill="#E0F5EA"/>
<path d="M22 16.7503C22 20.5003 19.375 22.3753 16.255 23.4628C16.0916 23.5182 15.9142 23.5156 15.7525 23.4553C12.625 22.3753 10 20.5003 10 16.7503V11.5003C10 11.3014 10.079 11.1107 10.2197 10.97C10.3603 10.8294 10.5511 10.7503 10.75 10.7503C12.25 10.7503 14.125 9.85034 15.43 8.71034C15.5889 8.57459 15.791 8.5 16 8.5C16.209 8.5 16.4111 8.57459 16.57 8.71034C17.8825 9.85784 19.75 10.7503 21.25 10.7503C21.4489 10.7503 21.6397 10.8294 21.7803 10.97C21.921 11.1107 22 11.3014 22 11.5003V16.7503Z" stroke="#178554" stroke-width="1.5" stroke-linecap="round" stroke-linejoin="round"/>
</svg>
