<svg width="32" height="32" viewBox="0 0 32 32" fill="none" xmlns="http://www.w3.org/2000/svg">
<rect width="32" height="32" rx="16" fill="#E0F5EA"/>
<g clip-path="url(#clip0_241_2554)">
<path d="M8.5 14.1249C8.50002 13.2903 8.7532 12.4753 9.2261 11.7877C9.699 11.1 10.3694 10.5719 11.1487 10.2732C11.928 9.97451 12.7796 9.91924 13.591 10.1147C14.4024 10.3101 15.1354 10.7471 15.6932 11.3679C15.7325 11.4099 15.78 11.4434 15.8328 11.4663C15.8856 11.4892 15.9425 11.501 16 11.501C16.0575 11.501 16.1144 11.4892 16.1672 11.4663C16.22 11.4434 16.2675 11.4099 16.3068 11.3679C16.8628 10.7431 17.596 10.3024 18.4087 10.1046C19.2214 9.90678 20.0751 9.96117 20.8562 10.2605C21.6372 10.5599 22.3085 11.09 22.7808 11.7803C23.2531 12.4707 23.504 13.2885 23.5 14.1249C23.5 15.8424 22.375 17.1249 21.25 18.2499L17.131 22.2347C16.9913 22.3952 16.8189 22.5241 16.6255 22.6129C16.4321 22.7017 16.222 22.7483 16.0092 22.7496C15.7964 22.751 15.5857 22.707 15.3912 22.6207C15.1967 22.5344 15.0228 22.4076 14.881 22.2489L10.75 18.2499C9.625 17.1249 8.5 15.8499 8.5 14.1249Z" stroke="#178554" stroke-width="1.5" stroke-linecap="round" stroke-linejoin="round"/>
</g>
<defs>
<clipPath id="clip0_241_2554">
<rect width="18" height="18" fill="white" transform="translate(7 7)"/>
</clipPath>
</defs>
</svg>
