<svg width="32" height="32" viewBox="0 0 32 32" fill="none" xmlns="http://www.w3.org/2000/svg">
<rect width="32" height="32" rx="16" fill="#E0F5EA"/>
<g clip-path="url(#clip0_241_2470)">
<path d="M18.998 16.75L22.9153 19.3615C22.9718 19.399 23.0374 19.4206 23.1051 19.4238C23.1729 19.4271 23.2402 19.4119 23.3 19.3799C23.3598 19.3478 23.4098 19.3002 23.4447 19.242C23.4796 19.1838 23.498 19.1173 23.498 19.0495V12.9025C23.4981 12.8365 23.4807 12.7717 23.4476 12.7145C23.4146 12.6574 23.3671 12.61 23.3098 12.5772C23.2526 12.5443 23.1878 12.5271 23.1218 12.5273C23.0558 12.5276 22.991 12.5452 22.934 12.5785L18.998 14.875" stroke="#178554" stroke-width="1.5" stroke-linecap="round" stroke-linejoin="round"/>
<path d="M17.502 11.5H10.002C9.17353 11.5 8.50195 12.1716 8.50195 13V19C8.50195 19.8284 9.17353 20.5 10.002 20.5H17.502C18.3304 20.5 19.002 19.8284 19.002 19V13C19.002 12.1716 18.3304 11.5 17.502 11.5Z" stroke="#178554" stroke-width="1.5" stroke-linecap="round" stroke-linejoin="round"/>
</g>
<defs>
<clipPath id="clip0_241_2470">
<rect width="18" height="18" fill="white" transform="translate(7 7)"/>
</clipPath>
</defs>
</svg>
